# xmcd CD database file
#
# Track frame offsets:
#	150
#	15375
#	29550
#	51450
#	72825
#	92400
#	114000
#	136125
#	152475
#	171225
#	198375
#	226950
#	243750
#	269400
#	290175
#
# Disc length: 4058 seconds
#
# Revision: 1
# Processed by: cddbd v1.5.1PL0 Copyright (c) Steve Scherf et al.
# Submitted via: freeDBTagger 0.5
#
DISCID=c70fd80f
DTITLE=上野茂都 - 唄草子 其の参 蕎麦屋の隅で
DYEAR=2001
DGENRE=folk
TTITLE0=江戸川節
TTITLE1=鰻節
TTITLE2=手相節
TTITLE3=午後三時
TTITLE4=おじやおやじ
TTITLE5=ヒバラ節
TTITLE6=続炊事節
TTITLE7=漬物紀行
TTITLE8=海藻節
TTITLE9=蕎麦屋の隅で
TTITLE10=暗室情話
TTITLE11=講談節 弐
TTITLE12=京葉水滸伝
TTITLE13=はいこう
TTITLE14=あんこうる
EXTD=
EXTT0=
EXTT1=
EXTT2=
EXTT3=
EXTT4=
EXTT5=
EXTT6=
EXTT7=
EXTT8=
EXTT9=
EXTT10=
EXTT11=
EXTT12=
EXTT13=
EXTT14=
PLAYORDER=
